# xmcd CD database file
#
# Track frame offsets:
#	150
#	3635
#	15300
#
# Disc length: 1553 seconds
#
# Revision: 1
# Processed by: cddbd v1.4PL0 Copyright (c) Steve Scherf et al.
# Submitted via: CDex 1.50Beta7
#
DISCID=14060f03
DTITLE=Tasuate and Luna - SPIRIT eXpress - Soul Merge Attunement Meditation
DYEAR=2002
DGENRE=New Age
TTITLE0=Fanfare Introduction
TTITLE1=Credits And Disclaimer
TTITLE2=Soul Merge Meditation
EXTD=YEAR: 2002
EXTT0=
EXTT1=
EXTT2=
PLAYORDER=
